<svg width="1000" height="1000" viewBox="0 0 1000 1000" fill="none" xmlns="http://www.w3.org/2000/svg">
<path d="M657.425 425.632C654.444 423.166 648.404 411.937 645.99 408.914L674.812 438.998L706.596 467.71L778.007 539.075L814.202 575.412C814.728 621.894 814.244 669.395 814.264 715.959L679.843 715.969C672.11 709.862 652.782 690.014 644.74 682.218L570.836 610.348L570.929 716L434.526 715.979C425.372 708.45 408.38 690.612 399.313 681.641L332.043 615.024C274.746 558.274 211.811 498.423 156 440.849L156.021 302.85L297.785 302.924L400.957 410.544C404.429 382.031 403.799 333.375 405.116 302.806L533.92 302.893C546.668 313.68 562.825 329.83 575.315 341.658C599.39 364.25 623.301 387.013 647.057 409.943C665.679 430.181 662.303 429.666 657.425 425.632Z" fill="white"/>
<path d="M812.518 302.834C812.618 307.536 795.903 331.079 792.714 338.747C768.209 397.661 776.815 456.657 818.701 505.172C747.155 458.23 690.083 451.055 617.458 501.12C617.54 497.419 629.052 481.915 632.227 475.874C637.317 466.271 641.4 456.166 644.411 445.719C661.088 387.808 643.539 350.341 616.242 301.442C675.591 351.982 752.282 349.811 812.518 302.834Z" fill="white"/>
<mask id="mask0_10_2" style="mask-type:alpha" maskUnits="userSpaceOnUse" x="156" y="302" width="659" height="414">
<path d="M657.425 425.592C654.444 423.127 648.404 411.897 645.99 408.874L674.812 438.959L706.596 467.671L778.007 539.036L814.202 575.373C814.728 621.854 814.244 669.356 814.264 715.92L679.843 715.93C672.11 709.822 652.782 689.975 644.74 682.178L570.836 610.309L570.929 715.961L434.526 715.94C425.372 708.411 408.38 690.573 399.313 681.602L332.043 614.985C274.746 558.234 211.811 498.384 156 440.81L156.021 302.81L297.785 302.885L400.957 410.505C404.429 381.992 403.799 333.336 405.116 302.767L533.92 302.854C546.668 313.64 562.825 329.791 575.315 341.619C599.39 364.211 623.301 386.974 647.057 409.903C665.679 430.141 662.303 429.627 657.425 425.592Z" fill="black"/>
</mask>
<g mask="url(#mask0_10_2)">
<path d="M812.518 302.795C812.618 307.497 795.903 331.04 792.714 338.708C768.209 397.622 776.815 456.617 818.701 505.133C747.155 458.19 690.083 451.016 617.458 501.081C617.54 497.38 629.052 481.876 632.227 475.835C637.317 466.232 641.4 456.127 644.411 445.679C661.088 387.769 643.539 350.302 616.242 301.403C675.591 351.943 752.282 349.772 812.518 302.795Z" fill="black"/>
</g>
</svg>
