<?xml version="1.0" encoding="UTF-8"?>
<svg version="1.1" xmlns="http://www.w3.org/2000/svg" width="1000" height="1000">
<path d="M0 0 C3.02470541 1.97751914 5.96037475 3.96991315 8.83984375 6.15625 C40.67899834 30.2464048 79.76589907 40.68431218 119.44433594 35.23046875 C146.13841408 30.750688 170.72272987 19.475438 192.5234375 3.65234375 C195 2 195 2 197 2 C195.64402939 6.53125857 193.81755356 10.35534754 191.4375 14.4375 C190.91567139 15.34266357 190.91567139 15.34266357 190.38330078 16.26611328 C188.54109576 19.4434869 186.64760317 22.58004539 184.68359375 25.68359375 C170.31798834 48.50544092 164.77186874 75.19684943 164.75 101.9375 C164.74932526 102.67709961 164.74865051 103.41669922 164.74795532 104.17871094 C164.76378164 115.0885168 165.21133097 125.39631089 168 136 C168.16628906 136.67272949 168.33257813 137.34545898 168.50390625 138.03857422 C174.55462121 162.2918567 186.81404578 182.44583559 202 202 C201.67 202.66 201.34 203.32 201 204 C200.4831665 203.68361572 199.96633301 203.36723145 199.43383789 203.04125977 C168.78553602 184.33148158 135.94649831 166.73203355 99.046875 166.95703125 C98.02279541 166.96168396 98.02279541 166.96168396 96.97802734 166.96643066 C95.31866641 166.97442233 93.65932726 166.98674787 92 167 C92.55144936 167.42147655 93.10289871 167.84295309 93.67105865 168.27720165 C111.58015424 182.0297368 128.77061033 196.52368863 145.5 211.6875 C146.13649365 212.26275689 146.7729873 212.83801377 147.42876863 213.43070269 C179.77733503 242.74713185 203.85994528 269.86039481 206.23419619 314.9443686 C206.77663408 327.05266602 206.39677264 339.0951292 205.6875 351.1875 C205.64210712 351.98440105 205.59671425 352.7813021 205.54994583 353.60235167 C204.35647867 374.20487495 202.20225189 394.60946287 199 415 C181.34500859 415.28099427 163.69072012 415.49225501 146.0340004 415.62174606 C137.83456689 415.68348444 129.63652691 415.76756639 121.43798828 415.90527344 C114.28750787 416.02531893 107.13803696 416.10239939 99.9865768 416.12906194 C96.20331288 416.14463685 92.42293538 416.18091619 88.64060211 416.26876068 C62.52813344 416.8516011 62.52813344 416.8516011 56.00780106 410.97951889 C53.74525627 408.46619424 51.89701776 405.80133909 50 403 C47.94085258 400.98624303 47.94085258 400.98624303 45.84179688 399.33789062 C41.15723087 395.33710604 36.86342558 390.96921581 32.53125 386.59375 C31.65150513 385.71021851 30.77176025 384.82668701 29.86535645 383.91638184 C26.60343055 380.6402768 23.34607436 377.3596502 20.08905029 374.07867432 C16.8851274 370.85169462 13.67730884 367.6286192 10.46875 364.40625 C9.63831177 363.56751343 8.80787354 362.72877686 7.95227051 361.86462402 C3.71867914 357.61342936 -0.59172254 353.54576296 -5.14050293 349.63464355 C-8.10076962 347.0323373 -10.86017414 344.24434077 -13.625 341.4375 C-14.51179443 340.54502563 -14.51179443 340.54502563 -15.41650391 339.63452148 C-17.90591073 337.12900944 -20.38921013 334.61747735 -22.87304688 332.10644531 C-29.40171824 325.51269276 -35.88323158 318.96824095 -43 313 C-43.33 312.67 -43.66 312.34 -44 312 C-44.33 345.99 -44.66 379.98 -45 415 C-78.92172047 415.64484855 -78.92172047 415.64484855 -93.22460938 415.78125 C-103.07029793 415.87590345 -112.91378326 415.98666922 -122.75756836 416.20703125 C-129.92971297 416.36750838 -137.10005757 416.46995905 -144.27394778 416.50541592 C-148.06675261 416.52611861 -151.85441302 416.57402242 -155.64555168 416.69168091 C-181.6717287 417.4649809 -181.6717287 417.4649809 -190.01873207 410.38024044 C-192.80768484 407.57710357 -195.33979941 404.61564955 -197.83596611 401.55064774 C-201.52486495 397.20271145 -205.66407901 393.29982025 -209.7435379 389.32371604 C-212.32651269 386.79259164 -214.87462724 384.22690728 -217.42481995 381.66282654 C-218.49250905 380.590856 -219.56025948 379.51894653 -220.62806892 378.44709587 C-221.16625669 377.90669631 -221.70444445 377.36629674 -222.25894094 376.80952144 C-225.07299308 373.98530803 -227.890446 371.16449146 -230.70762634 368.34339905 C-237.82893948 361.21111209 -244.94593779 354.07452693 -252.0625 346.9375 C-259.7822687 339.19560251 -267.50284471 331.45451873 -275.22829336 323.71828848 C-278.56263637 320.3790014 -281.89453686 317.03730289 -285.22450173 313.69365013 C-287.29700181 311.613645 -289.37161296 309.53575506 -291.44677734 307.45840836 C-292.85189175 306.0505583 -294.25448136 304.64018973 -295.65696716 303.22972107 C-300.08070447 298.8056182 -304.56732223 294.53740068 -309.3134222 290.46073246 C-311.35357502 288.69377131 -313.27766928 286.83615562 -315.17773438 284.91992188 C-315.89207642 284.20227661 -316.60641846 283.48463135 -317.34240723 282.74523926 C-318.08535034 281.9939978 -318.82829346 281.24275635 -319.59375 280.46875 C-320.38471069 279.67400269 -321.17567139 278.87925537 -321.99060059 278.0604248 C-325.34018573 274.69464452 -328.6837327 271.32288952 -332.02783203 267.95166016 C-334.48520939 265.47609773 -336.94566058 263.00361917 -339.40625 260.53125 C-340.52066467 259.40438782 -340.52066467 259.40438782 -341.65759277 258.25476074 C-344.98203928 254.91494151 -348.32844291 251.66622951 -351.90429688 248.59570312 C-356.89525305 244.29461113 -361.48998907 239.61543541 -366.125 234.9375 C-367.0805937 233.97748625 -368.03649184 233.01777547 -368.99267578 232.05834961 C-372.50550592 228.53229527 -376.01280573 225.0007571 -379.52026367 221.46936035 C-382.49665517 218.47308792 -385.47519157 215.47897769 -388.45648193 212.48757935 C-389.83653133 211.1011466 -391.21347744 209.71162702 -392.59033203 208.32202148 C-396.95374932 203.94173638 -401.37726169 199.73061192 -406.06735229 195.70333862 C-409.58847404 192.59999876 -412.87852304 189.2638377 -416.19140625 185.94140625 C-417.31481667 184.81943092 -417.31481667 184.81943092 -418.46092224 183.67478943 C-420.03271225 182.10367536 -421.60325849 180.53131608 -423.17260742 178.95776367 C-425.55601304 176.56900154 -427.94471068 174.18562554 -430.33398438 171.80273438 C-431.87011237 170.2659455 -433.40593009 168.7288464 -434.94140625 167.19140625 C-435.99794151 166.13790733 -435.99794151 166.13790733 -437.07582092 165.06312561 C-440.88044578 161.24071722 -444.51102567 157.34578826 -447.97169018 153.20857906 C-449.98504608 150.92042476 -449.98504608 150.92042476 -452.50123501 148.90256023 C-457.59239094 144.51863384 -460.60541323 141.32986478 -461.20254517 134.48251343 C-461.23126412 131.99280141 -461.20553805 129.50206905 -461.13525391 127.01318359 C-461.1324273 125.63241788 -461.13402797 124.25163717 -461.13967896 122.87088013 C-461.14252891 119.15123853 -461.08407224 115.43487276 -461.01393938 111.71598768 C-460.95109135 107.81910134 -460.94552621 103.92212574 -460.9336853 100.02481079 C-460.90270036 92.65790422 -460.82077546 85.29249554 -460.72019041 77.92624629 C-460.60811062 69.53460903 -460.55335819 61.14289724 -460.50323606 52.7506969 C-460.39892956 35.4996006 -460.22323163 18.24995906 -460 1 C-441.7278037 0.67200391 -423.4563779 0.42562186 -405.1818676 0.27462959 C-396.69527273 0.20263585 -388.21051355 0.10461171 -379.72509766 -0.05615234 C-372.32335813 -0.1963175 -364.92294844 -0.28615766 -357.51991856 -0.31723893 C-353.60428321 -0.33539261 -349.69244969 -0.37759219 -345.77804184 -0.48022079 C-318.79490943 -1.16075053 -318.79490943 -1.16075053 -310.98681831 5.89243889 C-308.80547908 8.2559253 -306.88338765 10.68203987 -305.10104752 13.35825729 C-303.64303396 15.53226258 -301.92762533 17.42170354 -300.15625 19.34375 C-299.64191406 19.94960938 -299.12757813 20.55546875 -298.59765625 21.1796875 C-295.4203225 24.79982816 -291.93485427 28.12659214 -288.5 31.5 C-283.72119198 36.1933195 -279.12844906 40.93991978 -274.75976562 46.01757812 C-271.66605994 49.50271827 -268.32563522 52.73807426 -265 56 C-260.39197045 60.51975312 -255.98982203 65.10932227 -251.77734375 70 C-248.67613415 73.48971278 -245.33165868 76.7321662 -242 80 C-237.35202039 84.55893786 -232.90124756 89.18740591 -228.65185547 94.12109375 C-226.23759564 96.86719834 -223.67002531 99.43897152 -221.0625 102 C-219.375 103.66666667 -217.6875 105.33333333 -216 107 C-213.77728569 86.88843611 -213.41720667 66.76392112 -212.99383545 46.55432129 C-212.84450947 39.45235818 -212.68644089 32.35061018 -212.52136421 25.24899673 C-212.46589967 22.78901994 -212.41615277 20.32897444 -212.3669281 17.86886597 C-212.33329969 16.36683668 -212.29946214 14.86481205 -212.26538086 13.36279297 C-212.2381041 12.05760712 -212.21082733 10.75242126 -212.182724 9.40768433 C-212.02549789 6.47551909 -211.61086616 3.85943688 -211 1 C-194.35338826 0.78935369 -177.70721162 0.63085505 -161.05958748 0.53369045 C-153.32898415 0.48736699 -145.59921095 0.42426336 -137.86914062 0.32104492 C-131.12813326 0.23107653 -124.38772727 0.17321484 -117.64613616 0.15320355 C-114.07919118 0.14151281 -110.51396588 0.11422823 -106.94757462 0.04842949 C-102.95663884 -0.02459833 -98.96865324 -0.02589303 -94.97705078 -0.02172852 C-93.80675827 -0.054086 -92.63646576 -0.08644348 -91.43070984 -0.11978149 C-84.87083806 -0.04594541 -81.37715919 0.92606427 -76.42721558 5.36073303 C-74.93685044 6.89306392 -73.45976367 8.43848912 -72 10 C-70.74497724 11.10161079 -69.4771264 12.18910782 -68.1875 13.25 C-63.83456099 17.0290221 -59.83089048 21.14296808 -55.78027344 25.23901367 C-52.34031378 28.70343039 -48.81477702 31.97098185 -45.08984375 35.12890625 C-41.72657906 38.14012828 -38.59743632 41.38274129 -35.42602539 44.59350586 C-32.07401352 47.97097202 -28.61776536 51.14256474 -24.9921875 54.2265625 C-22.56062019 56.39113418 -20.28788919 58.68429453 -18 61 C-15.14476317 63.88989828 -12.28499804 66.68451745 -9.1875 69.3125 C-4.85827705 73.00946321 -0.89449524 77.04931158 3.08129883 81.1184082 C5.90655494 83.98921177 8.78963986 86.72028996 11.84375 89.34765625 C16.45015421 93.3280223 20.72125413 97.61055335 25 101.9375 C25.77472656 102.71673828 26.54945313 103.49597656 27.34765625 104.29882812 C29.23410757 106.1969242 31.11816245 108.09733149 33 110 C34.26929461 72.29218614 21.89773014 40.56700868 3.35253906 8.06640625 C2.91264648 7.29425781 2.47275391 6.52210938 2.01953125 5.7265625 C1.62870361 5.05189941 1.23787598 4.37723633 0.83520508 3.68212891 C0 2 0 2 0 0 Z " fill="#000000" transform="translate(616,301)"/>
<path d="M0 0 C0.66 0 1.32 0 2 0 C3.19921875 1.22265625 3.19921875 1.22265625 4.6875 3.0625 C9.13467475 8.33639313 14.07240197 13.09655011 19.02026367 17.89477539 C19.6619751 18.52504639 20.30368652 19.15531738 20.96484375 19.8046875 C21.5487085 20.37171387 22.13257324 20.93874023 22.73413086 21.52294922 C24 23 24 23 24 25 C24.59296875 25.26425781 25.1859375 25.52851563 25.796875 25.80078125 C28.08029054 27.04370425 29.47426723 28.30401646 31.25 30.1875 C33.64829666 32.65678218 36.08114405 35.00127293 38.6875 37.25 C42.34059663 40.40592963 45.93111438 43.62454942 49.5 46.875 C50.04100342 47.36387695 50.58200684 47.85275391 51.1394043 48.35644531 C52.44580173 49.54992862 53.72564014 50.77236667 55 52 C55 52.33 55 52.66 55 53 C53.87207031 53.14695312 52.74414062 53.29390625 51.58203125 53.4453125 C22.80056093 57.44420051 -3.99588464 67.7852666 -27.77734375 84.56640625 C-30 86 -30 86 -32 86 C-30.54529325 80.62427335 -27.97746631 76.71190818 -24.875 72.1875 C-10.63679891 50.70530187 -2.54087733 25.6100309 0 0 Z " fill="#FBFBFB" transform="translate(650,414)"/>
</svg>
